<svg width="1440" height="812" viewBox="0 0 1440 812" fill="none" xmlns="http://www.w3.org/2000/svg">
<g clip-path="url(#clip0_123_114)">
<path d="M0 790.641L600.261 808.041C600.261 808.041 658.301 809.697 720 809.697C781.699 809.697 838.17 808.041 838.17 808.041L1440 790.641" stroke="#ABC5E8" stroke-opacity="0.2"/>
<path d="M0 749.913L600.261 802.114C600.261 802.114 658.301 807.081 720 807.081C781.699 807.081 838.17 802.114 838.17 802.114L1440 749.913" stroke="#ABC5E8" stroke-opacity="0.2"/>
<path d="M0 708.186L600.261 795.187C600.261 795.187 658.301 803.466 720 803.466C781.699 803.466 838.17 795.187 838.17 795.187L1440 708.186" stroke="#ABC5E8" stroke-opacity="0.2"/>
<path d="M0 666.462L600.261 788.265C600.261 788.265 658.301 799.855 720 799.855C781.699 799.855 838.17 788.265 838.17 788.265L1440 666.462" stroke="#ABC5E8" stroke-opacity="0.2"/>
<path d="M0 625.729L600.261 782.333C600.261 782.333 658.301 797.235 720 797.235C781.699 797.235 838.17 782.333 838.17 782.333L1440 625.729" stroke="#ABC5E8" stroke-opacity="0.2"/>
<path d="M0 584.006L600.261 775.41C600.261 775.41 658.301 793.623 720 793.623C781.699 793.623 838.17 775.41 838.17 775.41L1440 584.006" stroke="#ABC5E8" stroke-opacity="0.2"/>
<path d="M0 543.274L600.261 769.479C600.261 769.479 658.301 791.004 720 791.004C781.699 791.004 838.17 769.479 838.17 769.479L1440 543.274" stroke="#ABC5E8" stroke-opacity="0.2"/>
<path d="M0 501.55L600.261 762.556C600.261 762.556 658.301 787.392 720 787.392C781.699 787.392 838.17 762.556 838.17 762.556L1440 501.55" stroke="#ABC5E8" stroke-opacity="0.2"/>
<path d="M0 460.818L600.261 756.625C600.261 756.625 658.301 784.772 720 784.772C781.699 784.772 838.17 756.625 838.17 756.625L1440 460.818" stroke="#ABC5E8" stroke-opacity="0.2"/>
<path d="M0 419.095L600.261 749.702C600.261 749.702 658.301 781.161 720 781.161C781.699 781.161 838.17 749.702 838.17 749.702L1440 419.095" stroke="#ABC5E8" stroke-opacity="0.2"/>
<path d="M0 377.367L600.261 742.775C600.261 742.775 658.301 777.546 720 777.546C781.699 777.546 838.17 742.775 838.17 742.775L1440 377.367" stroke="#ABC5E8" stroke-opacity="0.2"/>
<path d="M0 336.639L600.261 736.847C600.261 736.847 658.301 774.93 720 774.93C781.699 774.93 838.17 736.847 838.17 736.847L1440 336.639" stroke="#ABC5E8" stroke-opacity="0.2"/>
<path d="M0 294.911L600.261 729.921C600.261 729.921 658.301 771.314 720 771.314C781.699 771.314 838.17 729.921 838.17 729.921L1440 294.911" stroke="#ABC5E8" stroke-opacity="0.2"/>
<path d="M0 254.179L600.261 723.989C600.261 723.989 658.301 768.695 720 768.695C781.699 768.695 838.17 723.989 838.17 723.989L1440 254.179" stroke="#ABC5E8" stroke-opacity="0.2"/>
<path d="M0 212.456L600.261 717.066C600.261 717.066 658.301 765.083 720 765.083C781.699 765.083 838.17 717.066 838.17 717.066L1440 212.456" stroke="#ABC5E8" stroke-opacity="0.2"/>
<path d="M0 171.724L600.261 711.135C600.261 711.135 658.301 762.463 720 762.463C781.699 762.463 838.17 711.135 838.17 711.135L1440 171.724" stroke="#ABC5E8" stroke-opacity="0.2"/>
<path d="M0 130L600.261 704.212C600.261 704.212 658.301 758.852 720 758.852C781.699 758.852 838.17 704.212 838.17 704.212L1440 130" stroke="#ABC5E8" stroke-opacity="0.2"/>
</g>
<defs>
<clipPath id="clip0_123_114">
<rect width="1440" height="812" fill="white"/>
</clipPath>
</defs>
</svg>
