<svg width="32" height="32" viewBox="0 0 32 32" fill="none" xmlns="http://www.w3.org/2000/svg">
<circle cx="15.9615" cy="15.9615" r="15.9615" fill="white" fill-opacity="0.1"/>
<path fill-rule="evenodd" clip-rule="evenodd" d="M14.6753 12.3322H17.4608V13.7197C17.862 12.9217 18.891 12.2047 20.4368 12.2047C23.4 12.2047 24.1035 13.7932 24.1035 16.7077V22.1055H21.1035V17.3715C21.1035 15.7117 20.7023 14.7757 19.6808 14.7757C18.264 14.7757 17.6753 15.7845 17.6753 17.3707V22.1055H14.6753V12.3322V12.3322ZM9.53102 21.978H12.531V12.2047H9.53102V21.978V21.978ZM12.9608 9.01797C12.9609 9.26943 12.911 9.5184 12.8141 9.75041C12.7171 9.98242 12.575 10.1929 12.396 10.3695C12.0333 10.7299 11.5424 10.9317 11.031 10.9305C10.5206 10.9301 10.0307 10.7289 9.66752 10.3702C9.48917 10.193 9.34756 9.98234 9.25077 9.75029C9.15399 9.51825 9.10395 9.26939 9.10352 9.01797C9.10352 8.51022 9.30602 8.02422 9.66827 7.66572C10.0312 7.30659 10.5212 7.10524 11.0318 7.10547C11.5433 7.10547 12.0338 7.30722 12.396 7.66572C12.7575 8.02422 12.9608 8.51022 12.9608 9.01797Z" fill="white"/>
</svg>
