<svg width="1440" height="278" viewBox="0 0 1440 278" fill="none" xmlns="http://www.w3.org/2000/svg">
<path d="M0 273.116V4.88379H54.1333L211.646 223.527L202.248 228.411V4.88379H245.103V273.116H191.722L35.337 55.9757L42.8555 50.3405V273.116H0Z" fill="white" fill-opacity="0.1"/>
<path d="M428.857 278C400.287 278 375.1 272.365 353.296 261.095C331.743 249.824 314.952 233.795 302.922 213.008C290.893 192.221 284.878 167.551 284.878 139C284.878 124.474 286.382 111.075 289.389 98.8027C292.647 86.5306 297.158 75.2604 302.922 64.9919C308.937 54.473 316.08 45.2063 324.35 37.1919C332.871 29.1775 342.395 22.4153 352.921 16.9054C363.697 11.3955 375.476 7.26307 388.258 4.50812C401.039 1.50271 414.572 0 428.857 0C457.678 0 482.865 5.63514 504.419 16.9054C525.972 27.9252 542.638 43.9541 554.417 64.9919C566.446 85.7793 572.461 110.449 572.461 139C572.461 153.276 570.957 166.675 567.95 179.197C564.942 191.469 560.431 202.865 554.417 213.384C548.652 223.652 541.51 232.794 532.989 240.808C524.718 248.823 515.195 255.585 504.419 261.095C493.642 266.605 481.863 270.737 469.082 273.492C456.551 276.497 443.143 278 428.857 278ZM428.857 240.057C438.882 240.057 448.03 239.055 456.3 237.051C464.821 235.048 472.59 232.042 479.607 228.035C486.875 224.028 493.141 219.144 498.404 213.384C503.917 207.623 508.554 200.986 512.313 193.473C516.072 185.959 518.954 177.695 520.959 168.678C522.964 159.412 523.967 149.519 523.967 139C523.967 117.712 520.082 99.5541 512.313 84.527C504.794 69.5 493.893 57.9793 479.607 49.9649C465.573 41.9505 448.656 37.9432 428.857 37.9432C418.833 37.9432 409.56 38.945 401.039 40.9487C392.769 42.9523 385 45.9577 377.732 49.9649C370.714 53.9721 364.449 58.8559 358.935 64.6162C353.672 70.3766 349.161 77.0135 345.402 84.527C341.643 92.0405 338.761 100.431 336.756 109.697C334.751 118.714 333.748 128.481 333.748 139C333.748 160.038 337.508 178.195 345.026 193.473C352.795 208.5 363.697 220.021 377.732 228.035C392.017 236.05 409.059 240.057 428.857 240.057Z" fill="white" fill-opacity="0.1"/>
<path d="M729.827 278C705.517 278 684.34 273.868 666.295 265.603C648.251 257.087 634.342 244.565 624.568 228.035C614.794 211.505 609.907 191.219 609.907 167.176V4.88379H656.521V165.297C656.521 181.827 659.529 195.727 665.544 206.997C671.809 218.017 680.455 226.407 691.483 232.168C702.51 237.928 715.542 240.808 730.579 240.808C745.866 240.808 758.898 238.053 769.675 232.543C780.702 226.783 789.223 218.268 795.238 206.997C801.253 195.727 804.26 181.827 804.26 165.297V4.88379H846.74V166.8C846.74 190.843 841.978 211.255 832.455 228.035C823.182 244.565 809.774 257.087 792.231 265.603C774.938 273.868 754.137 278 729.827 278Z" fill="white" fill-opacity="0.1"/>
<path d="M895.863 273.116V4.88379H1044.73C1061.77 4.88379 1076.56 7.76397 1089.09 13.5243C1101.87 19.2847 1111.77 27.6748 1118.79 38.6946C1125.8 49.464 1129.31 62.8631 1129.31 78.8919C1129.31 91.4144 1126.93 102.559 1122.17 112.327C1117.41 122.095 1110.64 130.234 1101.87 136.746C1093.1 143.007 1082.57 147.14 1070.29 149.143L1068.79 144.635C1080.07 146.388 1089.09 149.018 1095.85 152.524C1102.62 155.78 1107.88 160.539 1111.64 166.8C1115.65 172.811 1119.04 180.575 1121.79 190.092L1146.23 273.116H1096.61L1075.18 197.981C1072.42 187.462 1067.91 179.698 1061.65 174.689C1055.38 169.43 1046.98 166.8 1036.46 166.8H942.853V273.116H895.863ZM942.853 129.608H1035.71C1044.73 129.608 1052.5 127.855 1059.01 124.349C1065.78 120.842 1071.04 115.833 1074.8 109.322C1078.56 102.559 1080.44 94.4198 1080.44 84.9027C1080.44 71.3784 1076.31 60.9847 1068.04 53.7216C1059.77 46.2081 1048.99 42.4514 1035.71 42.4514H942.853V129.608Z" fill="white" fill-opacity="0.1"/>
<path d="M1158.43 273.116L1271.21 4.88379H1327.22L1440 273.116H1389.25L1290.76 29.3027H1303.92L1204.67 273.116H1158.43ZM1220.84 208.124V172.059H1377.22V208.124H1220.84Z" fill="white" fill-opacity="0.1"/>
</svg>
