<svg width="32" height="32" viewBox="0 0 32 32" fill="none" xmlns="http://www.w3.org/2000/svg">
<circle cx="15.9615" cy="15.9615" r="15.9615" fill="white" fill-opacity="0.1"/>
<path d="M14.9086 18.1429L18.5416 16L14.9086 13.8571V18.1429ZM23.0006 12.55C23.0916 12.8857 23.1546 13.3357 23.1966 13.9071C23.2456 14.4786 23.2666 14.9714 23.2666 15.4L23.3086 16C23.3086 17.5643 23.1966 18.7143 23.0006 19.45C22.8256 20.0929 22.4196 20.5071 21.7896 20.6857C21.4606 20.7786 20.8586 20.8429 19.9346 20.8857C19.0246 20.9357 18.1916 20.9571 17.4216 20.9571L16.3086 21C13.3756 21 11.5486 20.8857 10.8276 20.6857C10.1976 20.5071 9.79159 20.0929 9.61659 19.45C9.52559 19.1143 9.46259 18.6643 9.42059 18.0929C9.37159 17.5214 9.35059 17.0286 9.35059 16.6L9.30859 16C9.30859 14.4357 9.42059 13.2857 9.61659 12.55C9.79159 11.9071 10.1976 11.4929 10.8276 11.3143C11.1566 11.2214 11.7586 11.1571 12.6826 11.1143C13.5926 11.0643 14.4256 11.0429 15.1956 11.0429L16.3086 11C19.2416 11 21.0686 11.1143 21.7896 11.3143C22.4196 11.4929 22.8256 11.9071 23.0006 12.55Z" fill="white"/>
</svg>
