<svg preserveAspectRatio="xMidYMid meet" width="148" height="108.063" overflow="visible" style="display: block;" viewBox="0 0 148 108.063" fill="none" xmlns="http://www.w3.org/2000/svg">
<g id="Group 303">
<g id="Vector">
<path d="M30.5465 0.340381C26.6464 22.9054 10.8894 10.9775 30.5465 0.340381Z" fill="var(--fill-0, #B0C4DE)"/>
<path d="M15.6293 7.91395C24.9567 28.8386 5.20775 27.6419 15.6293 7.91395Z" fill="var(--fill-0, #B0C4DE)"/>
<path d="M30.291 14.8661C19.6826 35.1754 8.31792 19.0306 30.291 14.8661Z" fill="var(--fill-0, #B0C4DE)"/>
<path d="M9.26605 18.7303C20.553 39.8047 -0.0884972 40.0417 9.26605 18.7303Z" fill="var(--fill-0, #B0C4DE)"/>
<path d="M25.0484 24.8646C15.5433 46.795 2.49751 30.8476 25.0484 24.8646Z" fill="var(--fill-0, #B0C4DE)"/>
<path d="M3.35968 30.7134C18.8449 53.6326 -4.87768 56.3367 3.35968 30.7134Z" fill="var(--fill-0, #B0C4DE)"/>
<path d="M22.2464 35.9122C13.9092 62.2655 -2.99204 45.4527 22.2464 35.9122Z" fill="var(--fill-0, #B0C4DE)"/>
<path d="M0.270911 47.1487C22.8784 67.1698 -1.44833 76.4518 0.270911 47.1487Z" fill="var(--fill-0, #B0C4DE)"/>
<path d="M21.6425 47.5261C20.0167 77.6275 -2.42261 64.4415 21.6425 47.5261Z" fill="var(--fill-0, #B0C4DE)"/>
<path d="M1.24216 64.8406C27.9559 78.9685 6.51885 93.7186 1.24216 64.8406Z" fill="var(--fill-0, #B0C4DE)"/>
<path d="M22.0978 60.1724C27.6545 89.8041 2.72479 82.278 22.0978 60.1724Z" fill="var(--fill-0, #B0C4DE)"/>
<path d="M5.74949 81.1595C34.7547 89.6873 16.7029 108.406 5.74949 81.1595Z" fill="var(--fill-0, #B0C4DE)"/>
<path d="M25.2506 72.4352C36.6293 100.365 10.6942 97.951 25.2506 72.4352Z" fill="var(--fill-0, #B0C4DE)"/>
<path d="M14.5919 96.9284C44.797 98.3878 31.6897 120.826 14.5919 96.9284Z" fill="var(--fill-0, #B0C4DE)"/>
<path d="M31.475 83.8603C49.1478 108.322 23.3743 112.081 31.475 83.8603Z" fill="var(--fill-0, #B0C4DE)"/>
<path d="M117.454 0.340381C121.354 22.9054 137.111 10.9775 117.454 0.340381Z" fill="var(--fill-0, #B0C4DE)"/>
<path d="M132.371 7.91395C123.043 28.8386 142.792 27.6419 132.371 7.91395Z" fill="var(--fill-0, #B0C4DE)"/>
<path d="M117.709 14.8661C128.317 35.1754 139.682 19.0306 117.709 14.8661Z" fill="var(--fill-0, #B0C4DE)"/>
<path d="M138.734 18.7303C127.447 39.8047 148.089 40.0417 138.734 18.7303Z" fill="var(--fill-0, #B0C4DE)"/>
<path d="M122.952 24.8646C132.457 46.795 145.503 30.8476 122.952 24.8646Z" fill="var(--fill-0, #B0C4DE)"/>
<path d="M144.64 30.7134C129.155 53.6326 152.878 56.3367 144.64 30.7134Z" fill="var(--fill-0, #B0C4DE)"/>
<path d="M125.754 35.9122C134.091 62.2655 150.992 45.4527 125.754 35.9122Z" fill="var(--fill-0, #B0C4DE)"/>
<path d="M147.729 47.1487C125.122 67.1698 149.448 76.4518 147.729 47.1487Z" fill="var(--fill-0, #B0C4DE)"/>
<path d="M126.358 47.5261C127.983 77.6275 150.423 64.4415 126.358 47.5261Z" fill="var(--fill-0, #B0C4DE)"/>
<path d="M146.758 64.8406C120.044 78.9685 141.481 93.7186 146.758 64.8406Z" fill="var(--fill-0, #B0C4DE)"/>
<path d="M125.902 60.1724C120.346 89.8041 145.275 82.278 125.902 60.1724Z" fill="var(--fill-0, #B0C4DE)"/>
<path d="M142.251 81.1595C113.245 89.6873 131.297 108.406 142.251 81.1595Z" fill="var(--fill-0, #B0C4DE)"/>
<path d="M122.749 72.4352C111.371 100.365 137.306 97.951 122.749 72.4352Z" fill="var(--fill-0, #B0C4DE)"/>
<path d="M133.408 96.9284C103.203 98.3878 116.31 120.826 133.408 96.9284Z" fill="var(--fill-0, #B0C4DE)"/>
<path d="M116.525 83.8603C98.8523 108.322 124.626 112.081 116.525 83.8603Z" fill="var(--fill-0, #B0C4DE)"/>
<path d="M14.6012 96.7458C22.1715 97.1116 27.0541 98.7929 29.8444 100.756C31.2397 101.737 32.1199 102.794 32.543 103.8C32.967 104.808 32.9324 105.77 32.4885 106.53C31.5986 108.053 29.1735 108.631 25.9856 107.386C22.7802 106.134 18.7297 103.026 14.443 97.0345L14.224 96.728L14.6012 96.7458ZM133.557 97.0345C129.27 103.026 125.22 106.134 122.014 107.386C118.826 108.631 116.401 108.053 115.512 106.53C115.068 105.77 115.033 104.808 115.457 103.8C115.88 102.794 116.76 101.737 118.156 100.756C120.946 98.7929 125.829 97.1116 133.4 96.7458L133.776 96.728L133.557 97.0345ZM14.965 97.1308C19.1435 102.885 23.057 105.85 26.1197 107.045C29.2536 108.269 31.4233 107.627 32.1721 106.346C32.5473 105.704 32.5936 104.866 32.2052 103.942C31.8157 103.016 30.9898 102.008 29.6335 101.054C26.9668 99.1783 22.2777 97.5319 14.965 97.1308ZM133.035 97.1308C125.722 97.5319 121.033 99.1783 118.367 101.054C117.01 102.008 116.184 103.016 115.795 103.942C115.406 104.866 115.453 105.704 115.828 106.346C116.577 107.627 118.746 108.269 121.88 107.045C124.943 105.85 128.857 102.885 133.035 97.1308ZM31.6232 83.7534C36.0527 89.8844 37.7759 94.7391 37.9742 98.1377C38.0734 99.8369 37.792 101.182 37.2663 102.138C36.7395 103.097 35.9635 103.669 35.0906 103.797C33.3411 104.052 31.3777 102.521 30.3682 99.2595C29.3533 95.9805 29.2678 90.8858 31.2988 83.8105L31.4025 83.4478L31.6232 83.7534ZM116.701 83.8105C118.732 90.8857 118.648 95.9805 117.633 99.2595C116.623 102.521 114.659 104.052 112.909 103.797C112.037 103.669 111.261 103.097 110.734 102.138C110.208 101.182 109.927 99.8369 110.026 98.1377C110.224 94.7391 111.947 89.8844 116.377 83.7534L116.598 83.4478L116.701 83.8105ZM31.5473 84.2774C29.6356 91.1199 29.7481 96.0187 30.7177 99.1517C31.7101 102.358 33.5658 103.65 35.0378 103.436C35.7758 103.328 36.4616 102.842 36.9445 101.963C37.4284 101.082 37.705 99.811 37.6086 98.159C37.4191 94.911 35.7887 90.2296 31.5473 84.2774ZM116.452 84.2774C112.211 90.2294 110.581 94.9111 110.391 98.159C110.295 99.811 110.572 101.082 111.056 101.963C111.538 102.842 112.224 103.328 112.962 103.436C114.434 103.65 116.29 102.358 117.282 99.1517C118.252 96.0186 118.364 91.12 116.452 84.2774ZM5.80098 80.984C13.0709 83.1215 17.4175 85.9049 19.6641 88.4689C20.7874 89.7509 21.3916 90.9853 21.5645 92.0625C21.7377 93.1418 21.4777 94.0678 20.8663 94.7018C19.6409 95.9725 17.1469 95.9632 14.3437 94.0032C11.5255 92.0326 8.32553 88.0586 5.5793 81.2273L5.43896 80.878L5.80098 80.984ZM142.421 81.2273C139.674 88.0586 136.475 92.0326 133.656 94.0032C130.853 95.963 128.36 95.9721 127.135 94.7018C126.523 94.0678 126.262 93.1418 126.436 92.0625C126.608 90.9853 127.213 89.7509 128.336 88.4689C130.582 85.9049 134.929 83.1215 142.199 80.984L142.561 80.878L142.421 81.2273ZM6.06288 81.4438C8.76032 88.0189 11.8618 91.8209 14.5547 93.7038C17.3103 95.6305 19.5706 95.5176 20.6018 94.4487C21.1186 93.9128 21.362 93.1095 21.2033 92.1204C21.0442 91.129 20.4808 89.9549 19.3888 88.7086C17.2417 86.258 13.0745 83.5549 6.06288 81.4438ZM141.936 81.4438C134.925 83.5549 130.758 86.2581 128.611 88.7086C127.519 89.9549 126.956 91.129 126.797 92.1204C126.638 93.1095 126.881 93.9128 127.398 94.4487C128.429 95.5176 130.69 95.6305 133.445 93.7038C136.138 91.8209 139.239 88.0187 141.936 81.4438ZM25.4206 72.3667C28.2725 79.3669 28.7968 84.4898 28.1845 87.8389C27.8783 89.5135 27.2853 90.754 26.5478 91.5599C25.809 92.3671 24.9205 92.7402 24.0423 92.6586C22.2817 92.4947 20.7351 90.5453 20.5267 87.1385C20.3172 83.7133 21.4421 78.7427 25.0917 72.3453L25.2785 72.0174L25.4206 72.3667ZM122.908 72.3453C126.558 78.7427 127.683 83.7133 127.473 87.1385C127.265 90.5453 125.718 92.4947 123.958 92.6586C123.08 92.7402 122.191 92.3671 121.452 91.5599C120.715 90.7541 120.123 89.5135 119.816 87.8389C119.204 84.4898 119.728 79.3671 122.58 72.3667L122.721 72.0174L122.908 72.3453ZM25.2222 72.8577C21.7437 79.0568 20.6921 83.8436 20.8923 87.1162C21.0972 90.4655 22.595 92.1581 24.0763 92.2959C24.8187 92.3649 25.6006 92.054 26.2779 91.314C26.9566 90.5723 27.5266 89.4017 27.8243 87.7738C28.4095 84.5731 27.9337 79.6399 25.2222 72.8577ZM122.777 72.8577C120.066 79.6397 119.591 84.5731 120.176 87.7738C120.473 89.4017 121.043 90.5723 121.722 91.314C122.399 92.054 123.181 92.3649 123.924 92.2959C125.405 92.1581 126.903 90.4655 127.108 87.1162C127.308 83.8435 126.256 79.057 122.777 72.8577ZM1.32803 64.6796C8.02356 68.2206 11.7253 71.8122 13.4132 74.7716C14.2571 76.2513 14.6018 77.5811 14.5556 78.6709C14.5092 79.7628 14.0685 80.6181 13.3426 81.1177C11.8874 82.119 9.44595 81.6143 7.09173 79.136C4.72475 76.6442 2.38465 72.1134 1.06165 64.8729L0.994612 64.5032L1.32803 64.6796ZM146.938 64.8729C145.615 72.1134 143.275 76.6442 140.908 79.136C138.554 81.6143 136.113 82.119 134.657 81.1177C133.931 80.6181 133.491 79.7628 133.444 78.6709C133.398 77.5811 133.743 76.2513 134.587 74.7716C136.275 71.8122 139.976 68.2206 146.672 64.6796L147.005 64.5032L146.938 64.8729ZM1.4925 65.1821C2.81899 72.1613 5.09655 76.504 7.35811 78.8847C9.67249 81.321 11.91 81.6598 13.1343 80.8174C13.7481 80.3951 14.1475 79.6566 14.19 78.6557C14.2326 77.6526 13.9155 76.3902 13.095 74.9516C11.4818 72.1233 7.93984 68.6459 1.4925 65.1821ZM146.507 65.1821C140.06 68.6457 136.518 72.1234 134.905 74.9516C134.085 76.3902 133.767 77.6526 133.81 78.6557C133.853 79.6566 134.252 80.3951 134.866 80.8174C136.09 81.6598 138.327 81.321 140.642 78.8847C142.903 76.504 145.18 72.1612 146.507 65.1821ZM22.2778 60.1388C23.6705 67.5657 23.1587 72.6899 21.888 75.8498C21.2528 77.4296 20.4238 78.5269 19.5398 79.1699C18.654 79.814 17.7079 80.003 16.8636 79.7481C15.1714 79.2372 14.0473 77.0194 14.5252 73.64C15.0058 70.242 17.1024 65.5947 21.9596 60.0524L22.2081 59.769L22.2778 60.1388ZM126.04 60.0524C130.898 65.5947 132.994 70.242 133.475 73.64C133.953 77.0195 132.829 79.2372 131.136 79.7481C130.292 80.003 129.346 79.814 128.46 79.1699C127.576 78.5269 126.748 77.4295 126.113 75.8498C124.842 72.6899 124.329 67.5658 125.722 60.1388L125.792 59.769L126.04 60.0524ZM21.9855 60.5808C17.3356 65.963 15.3464 70.4442 14.8872 73.6908C14.4173 77.0133 15.5461 78.969 16.9699 79.3989C17.6837 79.6143 18.5116 79.4653 19.3235 78.8749C20.1371 78.2833 20.9299 77.25 21.5475 75.7144C22.7619 72.6945 23.2842 67.766 21.9855 60.5808ZM126.014 60.5808C124.715 67.7659 125.238 72.6945 126.453 75.7144C127.07 77.25 127.863 78.2833 128.676 78.8749C129.488 79.4653 130.316 79.6143 131.03 79.3989C132.454 78.969 133.583 77.0133 133.113 73.6908C132.654 70.4441 130.664 65.9632 126.014 60.5808ZM0.392141 47.0127C6.05855 52.0309 8.80452 56.3924 9.74297 59.6656C10.2122 61.3023 10.2314 62.6763 9.928 63.7244C9.62401 64.7742 8.9934 65.5013 8.16975 65.8157C6.51836 66.4458 4.26601 65.3798 2.56604 62.4172C0.856883 59.4385 -0.342786 54.4852 0.0882231 47.1384L0.11057 46.7623L0.392141 47.0127ZM147.912 47.1384C148.343 54.4852 147.143 59.4385 145.434 62.4172C143.734 65.3798 141.482 66.4458 139.83 65.8157C139.007 65.5013 138.376 64.7742 138.072 63.7244C137.769 62.6763 137.788 61.3023 138.257 59.6656C139.195 56.3924 141.941 52.0309 147.608 47.0127L147.889 46.7623L147.912 47.1384ZM21.8255 47.5358C21.418 55.0802 19.7054 59.9384 17.7217 62.7095C16.7299 64.0948 15.6643 64.9661 14.653 65.3826C13.6396 65.7999 12.675 65.7615 11.9151 65.3149C10.3919 64.4198 9.82537 61.9992 11.0909 58.8281C12.3635 55.6396 15.5032 51.6182 21.5368 47.3772L21.8451 47.1598L21.8255 47.5358ZM126.463 47.3772C132.497 51.6182 135.636 55.6396 136.909 58.8281C138.175 61.9992 137.608 64.4198 136.085 65.3149C135.325 65.7615 134.361 65.7998 133.348 65.3826C132.336 64.9662 131.27 64.095 130.278 62.7095C128.295 59.9384 126.582 55.0801 126.175 47.5358L126.155 47.1598L126.463 47.3772ZM0.433259 47.5402C0.0676724 54.6334 1.25049 59.3894 2.88337 62.2354C4.5545 65.1479 6.64893 66.0052 8.03835 65.4753C8.73488 65.2095 9.2981 64.5854 9.57671 63.6228C9.85588 62.6582 9.84685 61.3572 9.39078 59.7663C8.49391 56.6381 5.87667 52.4247 0.433259 47.5402ZM147.566 47.5402C142.123 52.4245 139.506 56.6382 138.609 59.7663C138.153 61.3572 138.144 62.6583 138.423 63.6228C138.702 64.5854 139.265 65.2095 139.962 65.4753C141.351 66.0052 143.445 65.1479 145.117 62.2354C146.75 59.3893 147.931 54.6335 147.566 47.5402ZM21.4366 47.8967C15.6426 52.0309 12.6474 55.9162 11.4315 58.9626C10.1872 62.0803 10.8195 64.2472 12.101 65.0004C12.7435 65.3779 13.5839 65.4282 14.5127 65.0458C15.4436 64.6626 16.4588 63.8444 17.4231 62.4974C19.319 59.8492 20.9951 55.184 21.4366 47.8967ZM126.562 47.8967C127.004 55.184 128.681 59.8491 130.577 62.4974C131.541 63.8444 132.556 64.6626 133.487 65.0458C134.416 65.4282 135.257 65.3779 135.899 65.0004C137.181 64.2472 137.813 62.0803 136.569 58.9626C135.353 55.9161 132.357 52.031 126.562 47.8967ZM22.4208 35.9673C20.3306 42.5739 17.6963 46.5004 15.2975 48.5115C14.0982 49.5169 12.9503 50.0493 11.9535 50.1893C10.9546 50.3296 10.1031 50.0747 9.52665 49.5014C8.37109 48.3519 8.42723 46.065 10.2784 43.5358C12.1407 40.9916 15.8519 38.1345 22.1812 35.7418L22.5343 35.6082L22.4208 35.9673ZM125.819 35.7418C132.148 38.1345 135.859 40.9916 137.722 43.5358C139.573 46.0649 139.63 48.3518 138.474 49.5014C137.898 50.0748 137.046 50.3296 136.046 50.1893C135.05 50.0493 133.902 49.5169 132.702 48.5115C130.304 46.5004 127.669 42.574 125.579 35.9673L125.466 35.6082L125.819 35.7418ZM21.9542 36.2194C15.8834 38.568 12.3462 41.3298 10.5743 43.7506C8.75697 46.2333 8.82796 48.291 9.78498 49.243C10.2649 49.7204 10.9941 49.956 11.9026 49.8284C12.8131 49.7005 13.8994 49.2067 15.0624 48.2317C17.3455 46.3175 19.8955 42.5687 21.9542 36.2194ZM126.045 36.2194C128.104 42.5688 130.655 46.3175 132.938 48.2317C134.101 49.2067 135.187 49.7005 136.097 49.8284C137.006 49.956 137.735 49.7204 138.215 49.243C139.172 48.291 139.243 46.2334 137.426 43.7506C135.654 41.3297 132.116 38.5681 126.045 36.2194ZM3.51176 30.6112C7.39378 36.3568 8.83334 40.8571 8.91703 43.9805C8.95882 45.5422 8.66126 46.7692 8.15008 47.6338C7.63782 48.5001 6.90761 49.0055 6.09864 49.0978C4.47669 49.2827 2.71716 47.8141 1.88581 44.7949C1.04959 41.7576 1.11965 37.0836 3.1855 30.6575L3.30081 30.2993L3.51176 30.6112ZM144.815 30.6575C146.88 37.0836 146.95 41.7576 146.114 44.7949C145.283 47.8141 143.523 49.2827 141.901 49.0978C141.092 49.0055 140.362 48.5001 139.85 47.6338C139.339 46.7692 139.041 45.5422 139.083 43.9805C139.167 40.8571 140.606 36.3568 144.488 30.6112L144.699 30.2993L144.815 30.6575ZM3.4188 31.1324C1.47952 37.3293 1.44328 41.8079 2.23889 44.6978C3.05486 47.6615 4.71336 48.8881 6.05663 48.7351C6.73021 48.6583 7.36959 48.2363 7.83544 47.4485C8.30225 46.6587 8.59195 45.5044 8.55143 43.9903C8.4718 41.0175 7.11851 36.6934 3.4188 31.1324ZM144.58 31.1324C140.881 36.6932 139.528 41.0176 139.449 43.9903C139.408 45.5046 139.699 46.6587 140.165 47.4485C140.631 48.2363 141.27 48.6583 141.943 48.7351C143.287 48.8882 144.945 47.6616 145.761 44.6978C146.557 41.8079 146.52 37.3295 144.58 31.1324ZM25.2168 24.9369C22.8328 30.4374 20.2168 33.5872 17.9702 35.1092C16.8469 35.8701 15.8075 36.2293 14.9319 36.2622C14.0544 36.2951 13.3366 35.9985 12.8858 35.4478C11.9818 34.3427 12.2433 32.3661 14.0622 30.351C15.8936 28.322 19.3431 26.1896 25.0014 24.6883L25.3661 24.5912L25.2168 24.9369ZM122.999 24.6883C128.657 26.1896 132.106 28.322 133.938 30.351C135.757 32.3661 136.018 34.3427 135.114 35.4478C134.663 35.9985 133.946 36.2951 133.068 36.2622C132.192 36.2293 131.153 35.8702 130.03 35.1092C127.783 33.5872 125.167 30.4374 122.783 24.9369L122.634 24.5912L122.999 24.6883ZM24.7225 25.1446C19.3288 26.628 16.0623 28.6803 14.3339 30.5951C12.5539 32.5673 12.4425 34.3287 13.1692 35.217C13.5338 35.6626 14.1322 35.9264 14.9185 35.8969C15.7071 35.8673 16.6806 35.5415 17.7646 34.8071C19.8855 33.3702 22.3969 30.3891 24.7225 25.1446ZM123.277 25.1446C125.602 30.3893 128.114 33.3702 130.235 34.8071C131.319 35.5414 132.293 35.8672 133.081 35.8969C133.868 35.9264 134.466 35.6626 134.831 35.217C135.557 34.3287 135.446 32.5673 133.666 30.5951C131.938 28.6802 128.671 26.628 123.277 25.1446ZM9.42743 18.6443C12.2583 23.93 13.1001 27.9317 12.8948 30.6317C12.7921 31.9817 12.4268 33.0159 11.907 33.7191C11.3861 34.424 10.7063 34.7988 9.99325 34.8071C8.5629 34.8235 7.1742 33.3884 6.72614 30.7145C6.27508 28.0225 6.75136 24.004 9.09848 18.6568L9.24955 18.312L9.42743 18.6443ZM138.902 18.6568C141.249 24.004 141.725 28.0225 141.274 30.7145C140.826 33.3881 139.438 34.8233 138.008 34.8071C137.294 34.7989 136.614 34.4241 136.093 33.7191C135.573 33.0159 135.208 31.9817 135.105 30.6317C134.9 27.9317 135.742 23.93 138.573 18.6443L138.75 18.312L138.902 18.6568ZM9.28262 19.1585C7.08626 24.2885 6.66152 28.1142 7.08726 30.6548C7.52583 33.2717 8.83898 34.4559 9.98878 34.4427C10.5655 34.436 11.1454 34.134 11.6121 33.5026C12.0801 32.8693 12.431 31.9068 12.5301 30.604C12.7239 28.0551 11.9492 24.2394 9.28262 19.1585ZM138.716 19.1585C136.05 24.2392 135.276 28.0551 135.47 30.604C135.569 31.9068 135.92 32.8693 136.388 33.5026C136.855 34.134 137.434 34.436 138.011 34.4427C139.161 34.4559 140.474 33.2716 140.913 30.6548C141.339 28.1141 140.913 24.2887 138.716 19.1585ZM30.4532 14.95C27.7922 20.0444 25.0726 22.8767 22.8177 24.1778C21.6903 24.8282 20.6706 25.1004 19.8295 25.0715C18.9861 25.0424 18.3171 24.7085 17.9228 24.1484C17.1322 23.0248 17.5228 21.1491 19.4022 19.3474C21.2951 17.5328 24.7425 15.7323 30.2565 14.6872L30.6275 14.6168L30.4532 14.95ZM117.743 14.6872C123.258 15.7323 126.705 17.5328 128.598 19.3474C130.477 21.1491 130.868 23.0248 130.077 24.1484C129.683 24.7085 129.014 25.0424 128.171 25.0715C127.329 25.1004 126.31 24.8282 125.182 24.1778C122.927 22.8767 120.208 20.0444 117.547 14.95L117.373 14.6168L117.743 14.6872ZM29.9445 15.122C24.6963 16.1684 21.4379 17.9022 19.656 19.6102C17.8181 21.3721 17.5934 23.0444 18.2232 23.939C18.5392 24.3877 19.0902 24.6811 19.842 24.7071C20.596 24.733 21.5473 24.4881 22.6335 23.8614C24.7569 22.6363 27.3603 19.9653 29.9445 15.122ZM118.055 15.122C120.639 19.9655 123.243 22.6363 125.366 23.8614C126.453 24.4881 127.404 24.733 128.158 24.7071C128.91 24.6811 129.461 24.3877 129.777 23.939C130.407 23.0444 130.182 21.3721 128.344 19.6102C126.562 17.9021 123.303 16.1684 118.055 15.122ZM15.7963 7.83946C18.136 13.0883 18.6634 16.9737 18.2795 19.5425C18.0875 20.827 17.6661 21.7917 17.1192 22.4295C16.5711 23.0689 15.8932 23.3825 15.2081 23.3411C13.8338 23.2578 12.6049 21.7841 12.362 19.1959C12.1175 16.5893 12.8521 12.7794 15.4673 7.82877L15.6434 7.49552L15.7963 7.83946ZM132.533 7.82877C135.148 12.7794 135.883 16.5893 135.638 19.1959C135.395 21.7841 134.166 23.2578 132.792 23.3411C132.107 23.3825 131.429 23.0689 130.881 22.4295C130.334 21.7917 129.913 20.827 129.721 19.5425C129.337 16.9737 129.864 13.0883 132.204 7.83946L132.357 7.49552L132.533 7.82877ZM15.6148 8.34202C13.1656 13.0869 12.4965 16.7083 12.7267 19.162C12.9642 21.6928 14.1362 22.9103 15.2305 22.9766C15.7795 23.0098 16.3525 22.7625 16.8412 22.1925C17.3314 21.6207 17.7325 20.7265 17.9175 19.4891C18.279 17.0699 17.8057 13.375 15.6148 8.34202ZM132.384 8.34202C130.194 13.3748 129.721 17.07 130.083 19.4891C130.268 20.7265 130.669 21.6207 131.159 22.1925C131.647 22.7625 132.221 23.0098 132.77 22.9766C133.864 22.9103 135.036 21.6928 135.273 19.162C135.504 16.7082 134.834 13.0871 132.384 8.34202ZM30.7267 0.371568C29.7483 6.0318 28.0229 9.55476 26.2725 11.4785C25.3973 12.4404 24.5091 13.0088 23.699 13.2366C22.8869 13.4648 22.1487 13.3501 21.602 12.9363C20.5055 12.1062 20.3041 10.2011 21.5439 7.91431C22.7926 5.61119 25.5264 2.8494 30.4594 0.179992L30.791 0L30.7267 0.371568ZM117.541 0.179992C122.474 2.8494 125.207 5.61119 126.456 7.91431C127.696 10.2011 127.495 12.1062 126.398 12.9363C125.851 13.3501 125.113 13.4648 124.301 13.2366C123.491 13.0088 122.603 12.4405 121.727 11.4785C119.977 9.55475 118.252 6.0318 117.273 0.371568L117.209 0L117.541 0.179992ZM30.2958 0.688782C25.6158 3.27889 23.0421 5.92001 21.8666 8.08807C20.6542 10.3242 20.9506 11.9849 21.8237 12.6458C22.2618 12.9773 22.8758 13.089 23.5998 12.8855C24.326 12.6813 25.1584 12.1603 26.0017 11.2335C27.65 9.42186 29.314 6.08684 30.2958 0.688782ZM117.703 0.688782C118.685 6.08691 120.35 9.42184 121.998 11.2335C122.842 12.1603 123.674 12.6813 124.4 12.8855C125.124 13.089 125.739 12.9774 126.177 12.6458C127.05 11.9847 127.346 10.324 126.133 8.08807C124.958 5.9199 122.384 3.27902 117.703 0.688782Z" fill="var(--fill-0, #B0C4DE)"/>
</g>
<path id="Vector_2" d="M89.495 59.8899L95.7302 83.4945L75.2431 66.5704L54.7561 83.4945L60.9913 60.3352L42.2857 44.7473L66.3357 43.4112L75.2431 21.1426L84.1505 43.4112L108.201 44.7473L89.495 59.8899Z" fill="var(--fill-0, #B0C4DE)"/>
</g>
</svg>
